<?xml version="1.0" encoding="UTF-8" standalone="no"?>
<!-- Generator: Adobe Illustrator 18.1.1, SVG Export Plug-In . SVG Version: 6.00 Build 0)  -->

<svg
   xmlns:dc="http://purl.org/dc/elements/1.1/"
   xmlns:cc="http://creativecommons.org/ns#"
   xmlns:rdf="http://www.w3.org/1999/02/22-rdf-syntax-ns#"
   xmlns:svg="http://www.w3.org/2000/svg"
   xmlns="http://www.w3.org/2000/svg"
   xmlns:sodipodi="http://sodipodi.sourceforge.net/DTD/sodipodi-0.dtd"
   xmlns:inkscape="http://www.inkscape.org/namespaces/inkscape"
   version="1.1"
   id="Layer_1"
   x="0px"
   y="0px"
   viewBox="0 0 126 55"
   enable-background="new 0 0 122.8 148.7"
   xml:space="preserve"
   sodipodi:docname="angie-chat.svg"
   width="126"
   height="55"
   inkscape:version="0.92.1 r15371"><metadata
     id="metadata21"><rdf:RDF><cc:Work
         rdf:about=""><dc:format>image/svg+xml</dc:format><dc:type
           rdf:resource="http://purl.org/dc/dcmitype/StillImage" /><dc:title></dc:title></cc:Work></rdf:RDF></metadata><defs
     id="defs19" /><sodipodi:namedview
     pagecolor="#ffffff"
     bordercolor="#666666"
     borderopacity="1"
     objecttolerance="10"
     gridtolerance="10"
     guidetolerance="10"
     inkscape:pageopacity="0"
     inkscape:pageshadow="2"
     inkscape:window-width="1320"
     inkscape:window-height="735"
     id="namedview17"
     showgrid="false"
     inkscape:zoom="1.5870881"
     inkscape:cx="-51.417569"
     inkscape:cy="93.489094"
     inkscape:window-x="435"
     inkscape:window-y="118"
     inkscape:window-maximized="0"
     inkscape:current-layer="Layer_1" /><path
     d="M 54,-1.7176832"
     id="path2"
     inkscape:connector-curvature="0"
     style="fill:#9e0728" /><path
     inkscape:connector-curvature="0"
     id="path4"
     d="m 98.706569,15.728914 h 1.764891 l 1.4119,3.27902 1.41191,-3.27902 h 2.47084 7.05955 c 1.94138,0 3.52977,-1.880928 3.52977,-2.980928 v 0 c 0,-1.63951 -1.5884,-2.9809272 -3.52977,-2.9809272 h -7.05955 -7.059541 c -1.941375,0 -3.529773,1.8809272 -3.529773,2.9809272 v 0 c 0.176488,1.63951 1.588398,2.980928 3.529773,2.980928 z"
     sodipodi:nodetypes="sccccsccscsccs" /><path
     inkscape:connector-curvature="0"
     id="path6"
     d="m 59.3,28.582317 v 0 c 1.4,0 2.6,-0.4 3.4,-1.1 0.8,-0.7 1.3,-1.7 1.3,-3 0,-1.3 -0.4,-2.2 -1.3,-3 -0.8,-0.7 -2,-1.1 -3.4,-1.1 v 0 c -1.4,0 -2.6,0.4 -3.4,1.1 -0.8,0.7 -1.3,1.7 -1.3,3 0,1.3 0.4,2.2 1.3,3 0.8,0.7 2,1.1 3.4,1.1 z" /><path
     inkscape:connector-curvature="0"
     id="path8"
     d="m 91.3,20.882317 c -0.7,-0.5 -1.7,-0.8 -2.8,-0.8 v 0 c -1.2,0 -2.1,0.3 -2.8,0.8 -0.7,0.5 -1.1,1.3 -1.2,2.2 h 4 4 c -0.1,-0.9 -0.5,-1.7 -1.2,-2.2 z" /><polygon
     id="polygon10"
     points="17.8,60.3 15.2,66.3 17.9,66.3 20.6,66.3 17.9,60.4 "
     transform="translate(0,-42.017683)" /><path
     inkscape:connector-curvature="0"
     id="path12"
     d="m 99.21448,1.3260678 h -75.6 c -11.8,0 -21.5,0.08726 -21.5,9.1477272 v 19.969564 c 0,11.8 9.6,12.48926 21.4,12.48926 h 13.9 l 10.7,11.3 9.9,-11.3 h 41.1 c 11.8,0 25.45471,-0.912778 25.58782,-12.71203 l 0.22277,-19.746794 c 0.1,-8.9414832 -13.88539,-9.1477272 -25.71059,-9.1477272 z m -1.022897,6.056256 h 7.589007 7.58902 c 3.35328,0 6.1771,2.384742 6.1771,5.2166232 0,2.831881 -2.82382,5.216623 -6.1771,5.216623 h -7.58902 -0.88244 l -3.00031,5.961855 -2.823814,-5.961855 h -0.882443 c -3.353285,0 -6.177103,-2.384742 -6.177103,-5.216623 -0.176489,-2.8318812 2.64733,-5.2166232 6.177103,-5.2166232 z M 71.31448,12.282324 h 5.3 v 3.6 h -5.3 z m 0,5.1 h 5.3 v 15 h -5.3 z m -47,15 -1.9,-4.1 h -4.5 -4.5 l -1.8,4.1 h -5.5 l 8.8,-19.5 h 3 3.1 l 9,19.5 z m 73.7,-6.2 h -9.6 -4.2 c 0,1.1 0.4,1.9 1.1,2.6 0.7,0.6 1.7,1 2.9,1 h 0.1 c 0.9,0 1.7,-0.2 2.3,-0.6 0.7,-0.4 1.2,-0.9 1.5,-1.6 h 5.5 c -0.7,1.7 -1.8,3 -3.4,3.9 -1.6,0.9 -3.6,1.4 -5.9,1.4 h -0.1 c -3,0 -5.3,-0.7 -7.1,-2.1 -1.7,-1.4 -2.6,-3.4 -2.6,-5.8 0,-2.4 0.9,-4.4 2.6,-5.8 1.7,-1.4 4.1,-2.1 7.1,-2.1 h 0.1 c 3,0 5.4,0.8 7.1,2.2 1.7,1.5 2.5,3.6 2.5,6.3 v 0.6 z"
     sodipodi:nodetypes="sscsscccsscsscsssscccscscccccccccccccccccccccccccsscccssscsssscscc" /><path
     style="fill:#ff6600;stroke-width:0.15899602;fill-opacity:1"
     d="m 30,24.906454 v -7.475871 h 2.304499 2.304499 v 1.113427 c 0,0.612386 0.04267,1.113429 0.09481,1.113429 0.05214,0 0.406569,-0.274647 0.787608,-0.610325 1.639358,-1.444203 3.847759,-2.190827 6.03108,-2.039014 2.193612,0.152529 3.874567,0.944218 4.837131,2.278172 0.849295,1.176981 0.865622,1.3074 0.927625,7.409618 l 0.05778,5.686434 H 45.029758 42.71448 l -0.0038,-4.413945 c -0.0021,-2.42767 -0.06886,-4.694715 -0.14838,-5.037879 -0.181244,-0.78211 -0.600564,-1.352716 -1.29482,-1.761982 -0.790303,-0.465884 -3.263233,-0.45633 -4.274523,0.01651 -0.908021,0.424561 -1.545828,1.062853 -1.970255,1.971749 -0.30874,0.661159 -0.338156,1.040432 -0.385511,4.970658 l -0.05129,4.254882 H 32.292966 30 Z"
     id="path3704"
     inkscape:connector-curvature="0" /><path
     style="fill:#ff6600;stroke-width:0.15899602;fill-opacity:1"
     d="m 56.482848,37.811252 c -0.174824,-0.03919 -0.711216,-0.15111 -1.191983,-0.248717 -2.618716,-0.531661 -4.192427,-1.979805 -4.406413,-4.054815 l -0.08812,-0.854539 h 2.406198 c 2.099729,0 2.4062,0.03241 2.4062,0.254497 0,0.139974 0.234892,0.489583 0.521982,0.776907 0.693599,0.694169 1.892635,0.946577 3.9595,0.833519 2.086907,-0.114155 3.184822,-0.593777 3.618344,-1.580667 0.301567,-0.686496 0.619241,-2.988296 0.412419,-2.988296 -0.0611,0 -0.439091,0.225851 -0.839972,0.50189 -1.433771,0.987267 -2.112797,1.160162 -4.573118,1.16441 -2.521248,0.0043 -3.41971,-0.166565 -5.129566,-0.975823 -2.825953,-1.337495 -4.319605,-3.863698 -4.138253,-6.998998 0.09171,-1.58556 0.605174,-2.757797 1.728783,-3.946821 1.06658,-1.128676 2.084863,-1.771253 3.606456,-2.275821 1.076648,-0.357022 1.509351,-0.409376 3.455786,-0.418125 2.563296,-0.01152 3.520329,0.205459 4.846862,1.098882 0.454922,0.306389 0.855702,0.557071 0.890624,0.557071 0.03492,0 0.0635,-0.28631 0.0635,-0.636244 V 17.383318 H 66.416035 68.8 v 7.208066 c 0,4.459353 -0.06528,7.567977 -0.171192,8.151879 -0.408413,2.251666 -2.066975,3.782312 -5.07353,4.682237 -0.995692,0.29803 -1.649993,0.365034 -3.973275,0.406891 -0.173313,0.0031 -0.344891,0.0058 -0.513158,0.008 -1.316909,0.01707 -2.430979,0.0057 -2.585995,-0.02908 z m 5.074227,-9.621113 c 0.946706,-0.354497 1.869237,-1.229253 2.24286,-2.126709 0.323978,-0.778205 0.34111,-2.544571 0.03184,-3.28332 -0.350369,-0.836932 -1.030236,-1.5515 -1.926249,-2.024564 -0.741271,-0.391366 -0.969271,-0.429598 -2.561927,-0.429598 -1.448324,0 -1.870932,0.0577 -2.463429,0.33632 -1.513106,0.711547 -2.391487,2.111285 -2.376989,3.787837 0.01364,1.577816 0.706829,2.758806 2.048129,3.489431 1.445072,0.78715 3.321951,0.881113 5.00576,0.250603 z"
     id="path3706"
     inkscape:connector-curvature="0"
     sodipodi:nodetypes="csccsscscsscscssscsscccsccsscccscssccscc" /></svg>