<?xml version="1.0" encoding="utf-8"?>
<!-- Generator: Adobe Illustrator 18.1.1, SVG Export Plug-In . SVG Version: 6.00 Build 0)  -->
<svg version="1.1" id="Layer_1" xmlns="http://www.w3.org/2000/svg" xmlns:xlink="http://www.w3.org/1999/xlink" x="0px" y="0px"
	 viewBox="0 0 122.8 148.7" enable-background="new 0 0 122.8 148.7" xml:space="preserve">
<path fill="#9E0728" d="M54,40.3"/>
<g>
	<path d="M95.8,55h1l0.8,2.2l0.8-2.2h1.4h4c1.1,0,2-0.9,2-2v0c0-1.1-0.9-2-2-2h-4h-4c-1.1,0-2,0.9-2,2v0C93.9,54.1,94.7,55,95.8,55z
		"/>
	<path d="M59.3,70.6L59.3,70.6c1.4,0,2.6-0.4,3.4-1.1c0.8-0.7,1.3-1.7,1.3-3s-0.4-2.2-1.3-3c-0.8-0.7-2-1.1-3.4-1.1h0
		c-1.4,0-2.6,0.4-3.4,1.1c-0.8,0.7-1.3,1.7-1.3,3s0.4,2.2,1.3,3C56.7,70.2,57.9,70.6,59.3,70.6z"/>
	<path d="M91.3,62.9c-0.7-0.5-1.7-0.8-2.8-0.8h0c-1.2,0-2.1,0.3-2.8,0.8c-0.7,0.5-1.1,1.3-1.2,2.2l4,0l4,0
		C92.4,64.2,92,63.4,91.3,62.9z"/>
	<polygon points="17.8,60.3 15.2,66.3 17.9,66.3 20.6,66.3 17.9,60.4 	"/>
	<path d="M99.2,15H23.6C11.8,15,2.1,24.6,2.1,36.4V111c0,11.8,9.6,21.4,21.4,21.4h13.9l10.7,11.3l9.9-11.3h41.1
		c11.8,0,21.4-9.6,21.4-21.4V36.4C120.6,24.6,111,15,99.2,15z M95.5,49.4h4.3h4.3c1.9,0,3.5,1.6,3.5,3.5c0,1.9-1.6,3.5-3.5,3.5h-4.3
		h-0.5l-1.7,4l-1.6-4h-0.5c-1.9,0-3.5-1.6-3.5-3.5C91.9,51,93.5,49.4,95.5,49.4z M71.3,54.3h5.3v3.6h-5.3V54.3z M71.3,59.4h5.3v15
		h-5.3V59.4z M51.8,61.1c1.7-1.4,3.8-2.1,6.5-2.1c0.3,0,0.6,0,0.9,0c0.9,0.1,1.6,0.2,2.3,0.4c0.9,0.3,1.7,0.7,2.4,1.4v-1.4h4.9v12.5
		c0,1.8-0.1,3-0.4,3.8c-0.3,0.8-0.7,1.4-1.4,2c-0.9,0.8-2,1.4-3.3,1.7C62.6,79.8,61,80,59.3,80l-0.1,0c-2.8,0-4.9-0.4-6.3-1.3
		c-1.4-0.8-2.1-2.1-2.1-3.8v-0.3h4.9c0,0.6,0.3,1.1,0.9,1.4c0.6,0.3,1.5,0.5,2.7,0.5l0.1,0c1.7,0,2.9-0.3,3.6-0.8
		c0.7-0.5,1-1.4,1-2.7v-1c-0.7,0.6-1.4,1.1-2.3,1.4c-0.7,0.2-1.5,0.4-2.3,0.4c-0.3,0-0.6,0-0.9,0c-2.7,0-4.9-0.7-6.6-2.1
		c-1.7-1.4-2.5-3.2-2.5-5.4C49.3,64.3,50.2,62.5,51.8,61.1z M24.3,74.4l-1.9-4.1h-4.5h-4.5l-1.8,4.1H6.1l8.8-19.5h3H21L30,74.4H24.3
		z M36.8,98.8H32V76.4h4.8V98.8z M45.3,98.8h-4.8V84.2h4.8V98.8z M45.3,82.8h-4.8v-4h4.8V82.8z M47.5,74.4h-4.8v-7.2
		c0-1.7-0.2-2.8-0.8-3.4c-0.5-0.6-1.4-0.9-2.6-0.9c-1.4,0-2.5,0.4-3.3,1.1c-0.8,0.8-1.2,1.8-1.2,3.1v7.3H30V59.5h4.8v2.2
		c0.9-0.9,1.8-1.5,2.8-2c1-0.4,2.1-0.7,3.2-0.7c1.3,0,2.4,0.2,3.4,0.6c1,0.4,1.7,1,2.3,1.8c0.3,0.5,0.6,1,0.7,1.7
		c0.1,0.6,0.2,1.6,0.2,3V74.4z M63.5,97.9c-1.5,0.9-3.7,1.4-6.6,1.4c-2.9,0-5.1-0.5-6.7-1.4c-1.5-0.9-2.4-2.3-2.5-4.1h5.2
		c0.1,0.8,0.5,1.3,1.1,1.6c0.7,0.3,1.8,0.5,3.3,0.5c1,0,1.8-0.1,2.4-0.4c0.6-0.3,0.9-0.6,0.9-1.1c0-0.4-0.2-0.7-0.5-0.8
		c-0.3-0.2-1.1-0.3-2.2-0.4l-4.4-0.4c-1.6-0.1-2.9-0.6-3.9-1.4c-0.9-0.8-1.4-1.9-1.4-3.1c0-1.7,0.7-2.9,2.2-3.8
		c1.5-0.9,3.6-1.3,6.4-1.3c2.6,0,4.7,0.4,6.2,1.3c1.5,0.9,2.2,2.1,2.2,3.6v0.1h-4.9c-0.1-0.7-0.5-1.2-1.1-1.5
		c-0.6-0.3-1.5-0.5-2.7-0.5c-1,0-1.8,0.1-2.3,0.4c-0.6,0.2-0.8,0.6-0.8,1c0,0.4,0.3,0.7,0.8,0.9c0.6,0.2,1.5,0.4,2.8,0.5l3.4,0.3
		c1.7,0.1,3,0.6,3.9,1.3c0.9,0.8,1.4,1.8,1.4,3.1C65.7,95.6,65,97,63.5,97.9z M78.3,99.3h-3.7c-1.8,0-3.2-0.3-4-0.8
		s-1.2-1.4-1.2-2.7v-8.1l-2.6-0.1v-3.4l2.6,0.1v-6h4.8v6h4v3.4h-4v6.2c0,1,0.1,1.5,0.3,1.7c0.2,0.2,0.6,0.3,1.3,0.3h2.5V99.3z
		 M98,68.2h-9.6h-4.2c0,1.1,0.4,1.9,1.1,2.6c0.7,0.6,1.7,1,2.9,1c0,0,0.1,0,0.1,0c0.9,0,1.7-0.2,2.3-0.6c0.7-0.4,1.2-0.9,1.5-1.6
		h5.5c-0.7,1.7-1.8,3-3.4,3.9c-1.6,0.9-3.6,1.4-5.9,1.4l-0.1,0c-3,0-5.3-0.7-7.1-2.1c-1.7-1.4-2.6-3.4-2.6-5.8
		c0-2.4,0.9-4.4,2.6-5.8c1.7-1.4,4.1-2.1,7.1-2.1l0.1,0c3,0,5.4,0.8,7.1,2.2c1.7,1.5,2.5,3.6,2.5,6.3V68.2z M114.5,73.5
		c-1.5,0.9-3.6,1.4-6.5,1.4c-2.9,0-5.1-0.4-6.6-1.3c-1.5-0.9-2.3-2.2-2.4-4h5.1c0.1,0.7,0.5,1.3,1.1,1.6c0.7,0.3,1.7,0.5,3.2,0.5
		c1,0,1.8-0.1,2.4-0.4c0.6-0.3,0.9-0.6,0.9-1c0-0.4-0.2-0.7-0.5-0.8c-0.3-0.2-1.1-0.3-2.2-0.4l-4.3-0.4c-1.6-0.1-2.9-0.6-3.8-1.4
		c-0.9-0.8-1.4-1.8-1.4-3.1c0-1.6,0.7-2.8,2.2-3.7c1.4-0.9,3.5-1.3,6.3-1.3c2.6,0,4.6,0.4,6.1,1.3c1.5,0.8,2.2,2,2.2,3.5v0.1h-4.8
		c-0.1-0.6-0.5-1.1-1.1-1.4c-0.6-0.3-1.5-0.5-2.7-0.5c-1,0-1.7,0.1-2.3,0.4c-0.5,0.2-0.8,0.6-0.8,1c0,0.4,0.3,0.7,0.8,0.9
		c0.5,0.2,1.5,0.4,2.8,0.5l3.4,0.3c1.7,0.1,2.9,0.5,3.8,1.3c0.9,0.8,1.3,1.8,1.3,3C116.7,71.3,116,72.6,114.5,73.5z"/>
</g>
</svg>
