<?xml version="1.0" encoding="iso-8859-1"?>
<!-- Generator: Adobe Illustrator 19.0.0, SVG Export Plug-In . SVG Version: 6.00 Build 0)  -->
<svg version="1.1" id="Layer_1" xmlns="http://www.w3.org/2000/svg" xmlns:xlink="http://www.w3.org/1999/xlink" x="0px" y="0px"
	 viewBox="0 0 512 512" style="enable-background:new 0 0 512 512;" xml:space="preserve">
<path style="fill:#507C5C;" d="M256.045,512c-0.688,0-1.372-0.002-2.063-0.007c-68.255-0.527-132.151-27.332-179.917-75.48
	C26.304,388.369,0,324.261,0,256C0,114.859,114.827,0.018,255.967,0c0.009,0,0.025,0,0.034,0
	c67.746,0,131.572,26.126,179.739,73.573c48.179,47.46,75.252,110.905,76.233,178.645c0.609,42.102-9.164,83.783-28.307,120.942
	l21.025,78.467c2.054,7.664-0.155,15.91-5.766,21.52s-13.861,7.818-21.52,5.766l-58.818-15.761
	c-7.961-2.133-12.686-10.318-10.553-18.28s10.315-12.689,18.28-10.554l46.151,12.367l-19.15-71.471
	c-0.993-3.704-0.521-7.649,1.316-11.015c18.552-33.978,28.059-72.552,27.495-111.553C480.35,129.797,378.906,29.85,256,29.85
	c-0.015,0-0.013,0-0.028,0C131.288,29.866,29.85,131.316,29.85,256c0,123.74,100.648,225.187,224.363,226.144
	c35.659,0.261,69.874-7.522,101.62-23.176c7.394-3.642,16.341-0.607,19.988,6.786c3.645,7.394,0.607,16.341-6.786,19.988
	C333.689,503.169,295.683,511.998,256.045,512z"/>
<path style="fill:#CFF09E;" d="M300.626,166.83c-26.641,0-38.595,14.932-43.297,23.704c-0.591,1.101-2.194,1.1-2.784-0.001
	c-4.686-8.771-16.574-23.701-43.214-23.701c-30.347,0-57.042,20.716-57.042,58.543c0,15.307,3.119,28.422,11.777,43.056
	c17.644,29.825,75.768,68.488,87.707,76.106c1.319,0.842,2.991,0.845,4.313,0.006c11.949-7.582,70.083-46.054,87.867-76.112
	c8.658-14.635,11.756-27.749,11.756-43.056C357.711,187.546,330.971,166.83,300.626,166.83z"/>
<path style="fill:#507C5C;" d="M255.936,360.095L255.936,360.095c-3.615,0-7.137-1.028-10.189-2.976
	c-7.327-4.674-72.16-46.663-92.525-81.089c-9.583-16.2-13.858-31.823-13.858-50.656c0-48.233,36.204-73.47,71.967-73.47
	c21.398,0,35.592,7.96,44.618,16.38c9.042-8.418,23.258-16.38,44.677-16.38c35.784,0,72.01,25.237,72.01,73.47
	c0,18.858-4.267,34.481-13.835,50.656c-20.51,34.668-85.385,76.462-92.714,81.115C263.04,359.075,259.531,360.095,255.936,360.095z
	 M211.332,181.755c-19.429,0-42.117,11.424-42.117,43.62c0,13.54,2.81,23.813,9.698,35.457
	c12.612,21.317,53.003,51.376,77.038,67.313c24.037-15.859,64.455-45.841,77.158-67.315c6.871-11.618,9.676-21.891,9.676-35.456
	c0-32.195-22.711-43.62-42.16-43.62c-17.9,0-26.272,8.609-30.144,15.831c-2.876,5.364-8.449,8.698-14.544,8.698
	c-6.103,0-11.68-3.339-14.555-8.715C237.527,190.354,229.186,181.755,211.332,181.755z"/>
<g>
</g>
<g>
</g>
<g>
</g>
<g>
</g>
<g>
</g>
<g>
</g>
<g>
</g>
<g>
</g>
<g>
</g>
<g>
</g>
<g>
</g>
<g>
</g>
<g>
</g>
<g>
</g>
<g>
</g>
</svg>
